<svg id="Layer_1" data-name="Layer 1" xmlns="http://www.w3.org/2000/svg" xmlns:xlink="http://www.w3.org/1999/xlink" viewBox="0 0 648.06 414.64"><defs><style>.cls-1{fill:#231f20;}.cls-1,.cls-10,.cls-100,.cls-101,.cls-102,.cls-103,.cls-104,.cls-105,.cls-106,.cls-107,.cls-108,.cls-109,.cls-11,.cls-110,.cls-111,.cls-112,.cls-113,.cls-114,.cls-115,.cls-116,.cls-117,.cls-118,.cls-119,.cls-12,.cls-120,.cls-121,.cls-122,.cls-123,.cls-124,.cls-125,.cls-126,.cls-127,.cls-128,.cls-13,.cls-14,.cls-15,.cls-16,.cls-17,.cls-18,.cls-19,.cls-2,.cls-20,.cls-21,.cls-22,.cls-23,.cls-24,.cls-25,.cls-26,.cls-27,.cls-28,.cls-29,.cls-3,.cls-30,.cls-31,.cls-32,.cls-33,.cls-34,.cls-35,.cls-36,.cls-37,.cls-38,.cls-39,.cls-4,.cls-40,.cls-41,.cls-42,.cls-43,.cls-44,.cls-45,.cls-46,.cls-47,.cls-48,.cls-49,.cls-5,.cls-50,.cls-51,.cls-52,.cls-53,.cls-54,.cls-55,.cls-56,.cls-57,.cls-58,.cls-59,.cls-6,.cls-60,.cls-61,.cls-62,.cls-63,.cls-64,.cls-65,.cls-66,.cls-67,.cls-68,.cls-69,.cls-7,.cls-70,.cls-71,.cls-72,.cls-73,.cls-74,.cls-75,.cls-76,.cls-77,.cls-78,.cls-79,.cls-8,.cls-80,.cls-81,.cls-82,.cls-83,.cls-84,.cls-85,.cls-86,.cls-87,.cls-88,.cls-89,.cls-9,.cls-90,.cls-91,.cls-92,.cls-93,.cls-94,.cls-95,.cls-96,.cls-97,.cls-98,.cls-99{stroke:#231f20;stroke-linecap:round;stroke-linejoin:round;stroke-width:0.75px;}.cls-2{fill:#e6e7e8;}.cls-3{fill:#58595b;}.cls-4{fill:#bcbec0;}.cls-5{fill:url(#Orange_Yellow);}.cls-6{fill:url(#Orange_Yellow-2);}.cls-7{fill:url(#Orange_Yellow-3);}.cls-8{fill:url(#Orange_Yellow-4);}.cls-9{fill:url(#Orange_Yellow-5);}.cls-10{fill:url(#Orange_Yellow-6);}.cls-11{fill:url(#Orange_Yellow-7);}.cls-12{fill:url(#Orange_Yellow-8);}.cls-13{fill:url(#Orange_Yellow-9);}.cls-14{fill:url(#Orange_Yellow-10);}.cls-15{fill:url(#Orange_Yellow-11);}.cls-16{fill:url(#Orange_Yellow-12);}.cls-17{fill:url(#Orange_Yellow-13);}.cls-18{fill:url(#Orange_Yellow-14);}.cls-19{fill:#c49a6c;}.cls-20{fill:#a97c50;}.cls-21{fill:url(#White_Black);}.cls-22{fill:url(#White_Black-2);}.cls-23{fill:url(#White_Black-3);}.cls-24{fill:url(#White_Black-4);}.cls-25{fill:url(#White_Black-5);}.cls-26{fill:url(#White_Black-6);}.cls-27{fill:url(#White_Black-7);}.cls-28{fill:url(#White_Black-8);}.cls-29{fill:url(#White_Black-9);}.cls-30{fill:url(#White_Black-10);}.cls-31{fill:url(#White_Black-11);}.cls-32{fill:url(#White_Black-12);}.cls-33{fill:url(#White_Black-13);}.cls-34{fill:url(#White_Black-14);}.cls-35{fill:url(#White_Black-15);}.cls-36{fill:url(#White_Black-16);}.cls-37{fill:url(#White_Black-17);}.cls-38{fill:url(#White_Black-18);}.cls-39{fill:#939598;}.cls-40{fill:#6d6e71;}.cls-41{fill:url(#White_Black-19);}.cls-42{fill:url(#White_Black-20);}.cls-43{fill:url(#White_Black-21);}.cls-44{fill:url(#White_Black-22);}.cls-45{fill:url(#White_Black-23);}.cls-46{fill:url(#White_Black-24);}.cls-47{fill:url(#White_Black-25);}.cls-48{fill:url(#White_Black-26);}.cls-49{fill:url(#White_Black-27);}.cls-50{fill:url(#White_Black-28);}.cls-51{fill:url(#White_Black-29);}.cls-52{fill:url(#White_Black-30);}.cls-53{fill:url(#White_Black-31);}.cls-54{fill:url(#White_Black-32);}.cls-55{fill:url(#White_Black-33);}.cls-56{fill:url(#White_Black-34);}.cls-57{fill:url(#White_Black-35);}.cls-58{fill:url(#White_Black-36);}.cls-59{fill:url(#White_Black-37);}.cls-60{fill:url(#White_Black-38);}.cls-61{fill:url(#White_Black-39);}.cls-62{fill:url(#White_Black-40);}.cls-63{fill:url(#White_Black-41);}.cls-64{fill:url(#White_Black-42);}.cls-65{fill:url(#White_Black-43);}.cls-66{fill:url(#White_Black-44);}.cls-67{fill:url(#White_Black-45);}.cls-68{fill:url(#White_Black-46);}.cls-69{fill:url(#White_Black-47);}.cls-70{fill:url(#White_Black-48);}.cls-71{fill:url(#White_Black-49);}.cls-72{fill:url(#White_Black-50);}.cls-73{fill:url(#White_Black-51);}.cls-74{fill:url(#White_Black-52);}.cls-75{fill:url(#White_Black-53);}.cls-76{fill:url(#White_Black-54);}.cls-77{fill:url(#Orange_Yellow-15);}.cls-78{fill:url(#Orange_Yellow-16);}.cls-79{fill:url(#Orange_Yellow-17);}.cls-80{fill:url(#Orange_Yellow-18);}.cls-81{fill:url(#Orange_Yellow-19);}.cls-82{fill:url(#Orange_Yellow-20);}.cls-83{fill:url(#Orange_Yellow-21);}.cls-84{fill:url(#Orange_Yellow-22);}.cls-85{fill:url(#Orange_Yellow-23);}.cls-86{fill:url(#Orange_Yellow-24);}.cls-87{fill:url(#Orange_Yellow-25);}.cls-88{fill:url(#Orange_Yellow-26);}.cls-89{fill:url(#Orange_Yellow-27);}.cls-90{fill:url(#Orange_Yellow-28);}.cls-91{fill:#8a441e;}.cls-92{fill:#754c29;}.cls-93{fill:url(#White_Black-55);}.cls-94{fill:url(#White_Black-56);}.cls-95{fill:url(#White_Black-57);}.cls-96{fill:url(#White_Black-58);}.cls-97{fill:url(#White_Black-59);}.cls-98{fill:url(#White_Black-60);}.cls-99{fill:url(#White_Black-61);}.cls-100{fill:url(#White_Black-62);}.cls-101{fill:url(#White_Black-63);}.cls-102{fill:url(#White_Black-64);}.cls-103{fill:url(#White_Black-65);}.cls-104{fill:url(#White_Black-66);}.cls-105{fill:url(#White_Black-67);}.cls-106{fill:url(#White_Black-68);}.cls-107{fill:url(#White_Black-69);}.cls-108{fill:url(#White_Black-70);}.cls-109{fill:url(#White_Black-71);}.cls-110{fill:url(#White_Black-72);}.cls-111{fill:url(#White_Black-73);}.cls-112{fill:url(#White_Black-74);}.cls-113{fill:url(#White_Black-75);}.cls-114{fill:url(#White_Black-76);}.cls-115{fill:url(#White_Black-77);}.cls-116{fill:url(#White_Black-78);}.cls-117{fill:url(#White_Black-79);}.cls-118{fill:url(#White_Black-80);}.cls-119{fill:url(#White_Black-81);}.cls-120{fill:url(#White_Black-82);}.cls-121{fill:url(#White_Black-83);}.cls-122{fill:url(#White_Black-84);}.cls-123{fill:url(#White_Black-85);}.cls-124{fill:url(#White_Black-86);}.cls-125{fill:url(#White_Black-87);}.cls-126{fill:url(#White_Black-88);}.cls-127{fill:url(#White_Black-89);}.cls-128{fill:url(#White_Black-90);}</style><linearGradient id="Orange_Yellow" x1="237.77" y1="59.11" x2="307.36" y2="59.11" gradientUnits="userSpaceOnUse"><stop offset="0" stop-color="#fff33b"/><stop offset="0.04" stop-color="#fee72e"/><stop offset="0.12" stop-color="#fed51b"/><stop offset="0.2" stop-color="#fdca10"/><stop offset="0.28" stop-color="#fdc70c"/><stop offset="0.67" stop-color="#f3903f"/><stop offset="0.89" stop-color="#ed683c"/><stop offset="1" stop-color="#e93e3a"/></linearGradient><linearGradient id="Orange_Yellow-2" x1="237.94" y1="100.75" x2="307.53" y2="100.75" xlink:href="#Orange_Yellow"/><linearGradient id="Orange_Yellow-3" x1="238.28" y1="148.99" x2="307.87" y2="148.99" xlink:href="#Orange_Yellow"/><linearGradient id="Orange_Yellow-4" x1="238.28" y1="197.91" x2="307.87" y2="197.91" xlink:href="#Orange_Yellow"/><linearGradient id="Orange_Yellow-5" x1="238.45" y1="242.39" x2="308.03" y2="242.39" xlink:href="#Orange_Yellow"/><linearGradient id="Orange_Yellow-6" x1="312.31" y1="51.19" x2="322.09" y2="51.19" xlink:href="#Orange_Yellow"/><linearGradient id="Orange_Yellow-7" x1="312.42" y1="75.83" x2="322.2" y2="75.83" xlink:href="#Orange_Yellow"/><linearGradient id="Orange_Yellow-8" x1="312.2" y1="101.3" x2="321.98" y2="101.3" xlink:href="#Orange_Yellow"/><linearGradient id="Orange_Yellow-9" x1="312.51" y1="125.43" x2="322.29" y2="125.43" xlink:href="#Orange_Yellow"/><linearGradient id="Orange_Yellow-10" x1="312.29" y1="152.08" x2="322.07" y2="152.08" xlink:href="#Orange_Yellow"/><linearGradient id="Orange_Yellow-11" x1="312.18" y1="176.55" x2="321.95" y2="176.55" xlink:href="#Orange_Yellow"/><linearGradient id="Orange_Yellow-12" x1="312.29" y1="200.34" x2="322.07" y2="200.34" xlink:href="#Orange_Yellow"/><linearGradient id="Orange_Yellow-13" x1="312.4" y1="226.15" x2="322.18" y2="226.15" xlink:href="#Orange_Yellow"/><linearGradient id="Orange_Yellow-14" x1="312.63" y1="252.3" x2="322.41" y2="252.3" xlink:href="#Orange_Yellow"/><linearGradient id="White_Black" x1="382.9" y1="151.14" x2="477.14" y2="151.14" gradientUnits="userSpaceOnUse"><stop offset="0" stop-color="#fff"/><stop offset="1" stop-color="#231f20"/></linearGradient><linearGradient id="White_Black-2" x1="383.13" y1="166.82" x2="477.37" y2="166.82" xlink:href="#White_Black"/><linearGradient id="White_Black-3" x1="383.13" y1="182.51" x2="477.37" y2="182.51" xlink:href="#White_Black"/><linearGradient id="White_Black-4" x1="383.35" y1="197.71" x2="477.6" y2="197.71" xlink:href="#White_Black"/><linearGradient id="White_Black-5" x1="383.58" y1="214.53" x2="477.83" y2="214.53" xlink:href="#White_Black"/><linearGradient id="White_Black-6" x1="383.35" y1="230.38" x2="477.6" y2="230.38" xlink:href="#White_Black"/><linearGradient id="White_Black-7" x1="383.58" y1="246.23" x2="477.83" y2="246.23" xlink:href="#White_Black"/><linearGradient id="White_Black-8" x1="383.81" y1="263.21" x2="478.06" y2="263.21" xlink:href="#White_Black"/><linearGradient id="White_Black-9" x1="383.58" y1="280.84" x2="477.83" y2="280.84" xlink:href="#White_Black"/><linearGradient id="White_Black-10" x1="483.84" y1="146.04" x2="497.09" y2="146.04" xlink:href="#White_Black"/><linearGradient id="White_Black-11" x1="484" y1="161.89" x2="497.24" y2="161.89" xlink:href="#White_Black"/><linearGradient id="White_Black-12" x1="483.69" y1="178.28" x2="496.93" y2="178.28" xlink:href="#White_Black"/><linearGradient id="White_Black-13" x1="484.12" y1="193.8" x2="497.36" y2="193.8" xlink:href="#White_Black"/><linearGradient id="White_Black-14" x1="483.82" y1="210.95" x2="497.06" y2="210.95" xlink:href="#White_Black"/><linearGradient id="White_Black-15" x1="483.66" y1="226.69" x2="496.91" y2="226.69" xlink:href="#White_Black"/><linearGradient id="White_Black-16" x1="483.82" y1="242" x2="497.06" y2="242" xlink:href="#White_Black"/><linearGradient id="White_Black-17" x1="483.97" y1="258.6" x2="497.21" y2="258.6" xlink:href="#White_Black"/><linearGradient id="White_Black-18" x1="484.27" y1="275.42" x2="497.52" y2="275.42" xlink:href="#White_Black"/><linearGradient id="White_Black-19" x1="511.44" y1="65.86" x2="605.68" y2="65.86" xlink:href="#White_Black"/><linearGradient id="White_Black-20" x1="511.67" y1="97.76" x2="605.91" y2="97.76" xlink:href="#White_Black"/><linearGradient id="White_Black-21" x1="511.67" y1="129.65" x2="605.91" y2="129.65" xlink:href="#White_Black"/><linearGradient id="White_Black-22" x1="511.9" y1="160.56" x2="606.14" y2="160.56" xlink:href="#White_Black"/><linearGradient id="White_Black-23" x1="512.13" y1="194.76" x2="606.37" y2="194.76" xlink:href="#White_Black"/><linearGradient id="White_Black-24" x1="511.9" y1="226.98" x2="606.14" y2="226.98" xlink:href="#White_Black"/><linearGradient id="White_Black-25" x1="512.13" y1="259.2" x2="606.37" y2="259.2" xlink:href="#White_Black"/><linearGradient id="White_Black-26" x1="512.35" y1="293.73" x2="606.6" y2="293.73" xlink:href="#White_Black"/><linearGradient id="White_Black-27" x1="512.13" y1="329.57" x2="606.37" y2="329.57" xlink:href="#White_Black"/><linearGradient id="White_Black-28" x1="612.39" y1="55.51" x2="625.63" y2="55.51" xlink:href="#White_Black"/><linearGradient id="White_Black-29" x1="612.54" y1="87.73" x2="625.78" y2="87.73" xlink:href="#White_Black"/><linearGradient id="White_Black-30" x1="612.23" y1="121.05" x2="625.48" y2="121.05" xlink:href="#White_Black"/><linearGradient id="White_Black-31" x1="612.66" y1="152.61" x2="625.91" y2="152.61" xlink:href="#White_Black"/><linearGradient id="White_Black-32" x1="612.36" y1="187.47" x2="625.6" y2="187.47" xlink:href="#White_Black"/><linearGradient id="White_Black-33" x1="612.21" y1="219.47" x2="625.45" y2="219.47" xlink:href="#White_Black"/><linearGradient id="White_Black-34" x1="612.36" y1="250.6" x2="625.6" y2="250.6" xlink:href="#White_Black"/><linearGradient id="White_Black-35" x1="612.51" y1="284.36" x2="625.75" y2="284.36" xlink:href="#White_Black"/><linearGradient id="White_Black-36" x1="612.82" y1="318.55" x2="626.06" y2="318.55" xlink:href="#White_Black"/><linearGradient id="White_Black-37" x1="71.28" y1="101.15" x2="141.94" y2="101.15" xlink:href="#White_Black"/><linearGradient id="White_Black-38" x1="71.45" y1="121.53" x2="142.12" y2="121.53" xlink:href="#White_Black"/><linearGradient id="White_Black-39" x1="71.45" y1="141.91" x2="142.12" y2="141.91" xlink:href="#White_Black"/><linearGradient id="White_Black-40" x1="71.63" y1="161.66" x2="142.29" y2="161.66" xlink:href="#White_Black"/><linearGradient id="White_Black-41" x1="71.8" y1="183.51" x2="142.46" y2="183.51" xlink:href="#White_Black"/><linearGradient id="White_Black-42" x1="71.63" y1="204.1" x2="142.29" y2="204.1" xlink:href="#White_Black"/><linearGradient id="White_Black-43" x1="71.8" y1="224.69" x2="142.46" y2="224.69" xlink:href="#White_Black"/><linearGradient id="White_Black-44" x1="71.97" y1="246.75" x2="142.63" y2="246.75" xlink:href="#White_Black"/><linearGradient id="White_Black-45" x1="71.8" y1="269.65" x2="142.46" y2="269.65" xlink:href="#White_Black"/><linearGradient id="White_Black-46" x1="146.97" y1="94.54" x2="156.9" y2="94.54" xlink:href="#White_Black"/><linearGradient id="White_Black-47" x1="147.09" y1="115.12" x2="157.02" y2="115.12" xlink:href="#White_Black"/><linearGradient id="White_Black-48" x1="146.86" y1="136.41" x2="156.79" y2="136.41" xlink:href="#White_Black"/><linearGradient id="White_Black-49" x1="147.18" y1="156.58" x2="157.11" y2="156.58" xlink:href="#White_Black"/><linearGradient id="White_Black-50" x1="146.95" y1="178.85" x2="156.88" y2="178.85" xlink:href="#White_Black"/><linearGradient id="White_Black-51" x1="146.84" y1="199.3" x2="156.76" y2="199.3" xlink:href="#White_Black"/><linearGradient id="White_Black-52" x1="146.95" y1="219.19" x2="156.88" y2="219.19" xlink:href="#White_Black"/><linearGradient id="White_Black-53" x1="147.07" y1="240.76" x2="156.99" y2="240.76" xlink:href="#White_Black"/><linearGradient id="White_Black-54" x1="147.29" y1="262.61" x2="157.22" y2="262.61" xlink:href="#White_Black"/><linearGradient id="Orange_Yellow-15" x1="15.49" y1="231.86" x2="109.73" y2="231.86" xlink:href="#Orange_Yellow"/><linearGradient id="Orange_Yellow-16" x1="15.72" y1="257.14" x2="109.96" y2="257.14" xlink:href="#Orange_Yellow"/><linearGradient id="Orange_Yellow-17" x1="16.18" y1="286.43" x2="110.42" y2="286.43" xlink:href="#Orange_Yellow"/><linearGradient id="Orange_Yellow-18" x1="16.18" y1="316.13" x2="110.42" y2="316.13" xlink:href="#Orange_Yellow"/><linearGradient id="Orange_Yellow-19" x1="16.41" y1="343.13" x2="110.65" y2="343.13" xlink:href="#Orange_Yellow"/><linearGradient id="Orange_Yellow-20" x1="116.44" y1="227.05" x2="129.68" y2="227.05" xlink:href="#Orange_Yellow"/><linearGradient id="Orange_Yellow-21" x1="116.59" y1="242.01" x2="129.83" y2="242.01" xlink:href="#Orange_Yellow"/><linearGradient id="Orange_Yellow-22" x1="116.28" y1="257.48" x2="129.53" y2="257.48" xlink:href="#Orange_Yellow"/><linearGradient id="Orange_Yellow-23" x1="116.71" y1="272.13" x2="129.96" y2="272.13" xlink:href="#Orange_Yellow"/><linearGradient id="Orange_Yellow-24" x1="116.41" y1="288.3" x2="129.65" y2="288.3" xlink:href="#Orange_Yellow"/><linearGradient id="Orange_Yellow-25" x1="116.26" y1="303.16" x2="129.5" y2="303.16" xlink:href="#Orange_Yellow"/><linearGradient id="Orange_Yellow-26" x1="116.41" y1="317.6" x2="129.65" y2="317.6" xlink:href="#Orange_Yellow"/><linearGradient id="Orange_Yellow-27" x1="116.56" y1="333.27" x2="129.8" y2="333.27" xlink:href="#Orange_Yellow"/><linearGradient id="Orange_Yellow-28" x1="116.87" y1="349.14" x2="130.11" y2="349.14" xlink:href="#Orange_Yellow"/><linearGradient id="White_Black-55" x1="336.07" y1="116.27" x2="430.32" y2="116.27" xlink:href="#White_Black"/><linearGradient id="White_Black-56" x1="336.3" y1="143.34" x2="430.54" y2="143.34" xlink:href="#White_Black"/><linearGradient id="White_Black-57" x1="336.3" y1="170.41" x2="430.54" y2="170.41" xlink:href="#White_Black"/><linearGradient id="White_Black-58" x1="336.53" y1="196.64" x2="430.77" y2="196.64" xlink:href="#White_Black"/><linearGradient id="White_Black-59" x1="336.76" y1="225.67" x2="431" y2="225.67" xlink:href="#White_Black"/><linearGradient id="White_Black-60" x1="336.53" y1="253.02" x2="430.77" y2="253.02" xlink:href="#White_Black"/><linearGradient id="White_Black-61" x1="336.76" y1="280.37" x2="431" y2="280.37" xlink:href="#White_Black"/><linearGradient id="White_Black-62" x1="336.99" y1="309.67" x2="431.23" y2="309.67" xlink:href="#White_Black"/><linearGradient id="White_Black-63" x1="336.76" y1="340.09" x2="431" y2="340.09" xlink:href="#White_Black"/><linearGradient id="White_Black-64" x1="437.02" y1="107.48" x2="450.26" y2="107.48" xlink:href="#White_Black"/><linearGradient id="White_Black-65" x1="437.18" y1="134.83" x2="450.42" y2="134.83" xlink:href="#White_Black"/><linearGradient id="White_Black-66" x1="436.87" y1="163.11" x2="450.11" y2="163.11" xlink:href="#White_Black"/><linearGradient id="White_Black-67" x1="437.3" y1="189.9" x2="450.54" y2="189.9" xlink:href="#White_Black"/><linearGradient id="White_Black-68" x1="436.99" y1="219.48" x2="450.24" y2="219.48" xlink:href="#White_Black"/><linearGradient id="White_Black-69" x1="436.84" y1="246.65" x2="450.08" y2="246.65" xlink:href="#White_Black"/><linearGradient id="White_Black-70" x1="436.99" y1="273.07" x2="450.24" y2="273.07" xlink:href="#White_Black"/><linearGradient id="White_Black-71" x1="437.15" y1="301.72" x2="450.39" y2="301.72" xlink:href="#White_Black"/><linearGradient id="White_Black-72" x1="437.45" y1="330.74" x2="450.69" y2="330.74" xlink:href="#White_Black"/><linearGradient id="White_Black-73" x1="171.61" y1="165.55" x2="265.86" y2="165.55" xlink:href="#White_Black"/><linearGradient id="White_Black-74" x1="171.84" y1="187.79" x2="266.09" y2="187.79" xlink:href="#White_Black"/><linearGradient id="White_Black-75" x1="171.84" y1="210.03" x2="266.09" y2="210.03" xlink:href="#White_Black"/><linearGradient id="White_Black-76" x1="172.07" y1="231.58" x2="266.32" y2="231.58" xlink:href="#White_Black"/><linearGradient id="White_Black-77" x1="172.3" y1="255.43" x2="266.54" y2="255.43" xlink:href="#White_Black"/><linearGradient id="White_Black-78" x1="172.07" y1="277.9" x2="266.32" y2="277.9" xlink:href="#White_Black"/><linearGradient id="White_Black-79" x1="172.3" y1="300.37" x2="266.54" y2="300.37" xlink:href="#White_Black"/><linearGradient id="White_Black-80" x1="172.53" y1="324.45" x2="266.77" y2="324.45" xlink:href="#White_Black"/><linearGradient id="White_Black-81" x1="172.3" y1="349.44" x2="266.54" y2="349.44" xlink:href="#White_Black"/><linearGradient id="White_Black-82" x1="272.56" y1="158.32" x2="285.81" y2="158.32" xlink:href="#White_Black"/><linearGradient id="White_Black-83" x1="272.72" y1="180.79" x2="285.96" y2="180.79" xlink:href="#White_Black"/><linearGradient id="White_Black-84" x1="272.41" y1="204.03" x2="285.65" y2="204.03" xlink:href="#White_Black"/><linearGradient id="White_Black-85" x1="272.84" y1="226.04" x2="286.08" y2="226.04" xlink:href="#White_Black"/><linearGradient id="White_Black-86" x1="272.53" y1="250.35" x2="285.78" y2="250.35" xlink:href="#White_Black"/><linearGradient id="White_Black-87" x1="272.38" y1="272.67" x2="285.62" y2="272.67" xlink:href="#White_Black"/><linearGradient id="White_Black-88" x1="272.53" y1="294.37" x2="285.78" y2="294.37" xlink:href="#White_Black"/><linearGradient id="White_Black-89" x1="272.69" y1="317.92" x2="285.93" y2="317.92" xlink:href="#White_Black"/><linearGradient id="White_Black-90" x1="272.99" y1="341.76" x2="286.24" y2="341.76" xlink:href="#White_Black"/></defs><rect class="cls-1" x="0.38" y="301.45" width="647.31" height="112.82"/><rect class="cls-2" x="235.91" y="35.8" width="74.22" height="287.85"/><polygon class="cls-3" points="323.78 9.04 251.48 9.21 236.08 35.04 310.68 35.04 323.78 9.04"/><polygon class="cls-4" points="323.78 9.04 323.78 302.82 310.28 323.56 310.28 35.42 323.78 9.04"/><rect class="cls-5" x="237.77" y="49.93" width="69.59" height="18.35"/><rect class="cls-6" x="237.94" y="84.44" width="69.59" height="32.61"/><rect class="cls-7" x="238.28" y="131.15" width="69.59" height="35.68"/><rect class="cls-8" x="238.28" y="179.72" width="69.59" height="36.37"/><rect class="cls-9" x="238.45" y="224.14" width="69.59" height="36.49"/><path class="cls-4" d="M260.4,319.58v20.87h19.81V319.58S271.07,294.45,260.4,319.58Z" transform="translate(-0.12 -17.77)"/><polygon class="cls-10" points="322.09 53.01 312.35 67.97 312.31 49.87 321.83 34.41 322.09 53.01"/><polygon class="cls-11" points="322.2 77.65 312.46 92.61 312.42 74.51 321.95 59.05 322.2 77.65"/><polygon class="cls-12" points="321.98 103.12 312.24 118.08 312.2 99.98 321.72 84.52 321.98 103.12"/><polygon class="cls-13" points="322.29 127.25 312.56 142.21 312.51 124.11 322.04 108.65 322.29 127.25"/><polygon class="cls-14" points="322.07 153.9 312.33 168.86 312.29 150.76 321.81 135.3 322.07 153.9"/><polygon class="cls-15" points="321.95 178.37 312.22 193.33 312.18 175.23 321.7 159.77 321.95 178.37"/><polygon class="cls-16" points="322.07 202.17 312.33 217.12 312.29 199.02 321.81 183.56 322.07 202.17"/><polygon class="cls-17" points="322.18 227.97 312.44 242.93 312.4 224.83 321.93 209.37 322.18 227.97"/><polygon class="cls-18" points="322.4 254.12 312.67 269.07 312.63 250.98 322.15 235.52 322.4 254.12"/><rect class="cls-19" x="380.38" y="136.14" width="100.51" height="185.18"/><polygon class="cls-3" points="499.38 118.93 401.47 119.04 380.61 135.66 481.63 135.66 499.38 118.93"/><polygon class="cls-20" points="499.38 118.93 499.38 307.92 481.09 321.26 481.09 135.9 499.38 118.93"/><rect class="cls-21" x="382.9" y="145.23" width="94.24" height="11.81"/><rect class="cls-22" x="383.13" y="160.92" width="94.24" height="11.81"/><rect class="cls-23" x="383.13" y="176.61" width="94.24" height="11.81"/><rect class="cls-24" x="383.35" y="191.81" width="94.24" height="11.81"/><rect class="cls-25" x="383.58" y="208.63" width="94.24" height="11.81"/><rect class="cls-26" x="383.35" y="224.48" width="94.24" height="11.81"/><rect class="cls-27" x="383.58" y="240.32" width="94.24" height="11.81"/><rect class="cls-28" x="383.81" y="257.31" width="94.24" height="11.81"/><rect class="cls-29" x="383.58" y="274.93" width="94.24" height="11.81"/><path class="cls-4" d="M413.51,325v13.43h26.83V325S428,308.87,413.51,325Z" transform="translate(-0.12 -17.77)"/><polygon class="cls-30" points="497.09 147.22 483.9 156.84 483.85 145.19 496.74 135.25 497.09 147.22"/><polygon class="cls-31" points="497.24 163.06 484.06 172.69 484 161.04 496.9 151.1 497.24 163.06"/><polygon class="cls-32" points="496.93 179.45 483.75 189.07 483.69 177.43 496.59 167.48 496.93 179.45"/><polygon class="cls-33" points="497.36 194.98 484.18 204.6 484.12 192.96 497.02 183.01 497.36 194.98"/><polygon class="cls-34" points="497.06 212.12 483.87 221.74 483.82 210.1 496.71 200.15 497.06 212.12"/><polygon class="cls-35" points="496.9 227.86 483.72 237.48 483.66 225.84 496.56 215.89 496.9 227.86"/><polygon class="cls-36" points="497.06 243.17 483.87 252.79 483.82 241.15 496.71 231.2 497.06 243.17"/><polygon class="cls-37" points="497.21 259.77 484.03 269.39 483.97 257.75 496.87 247.8 497.21 259.77"/><polygon class="cls-38" points="497.52 276.59 484.33 286.21 484.27 274.57 497.17 264.62 497.52 276.59"/><rect class="cls-39" x="508.92" y="35.37" width="100.51" height="376.51"/><polygon class="cls-3" points="627.92 0.38 530.01 0.59 509.15 34.38 610.18 34.38 627.92 0.38"/><polygon class="cls-40" points="627.92 0.38 627.92 384.64 609.63 411.77 609.63 34.87 627.92 0.38"/><rect class="cls-41" x="511.44" y="53.86" width="94.24" height="24"/><rect class="cls-42" x="511.67" y="85.76" width="94.24" height="24"/><rect class="cls-43" x="511.67" y="117.65" width="94.24" height="24"/><rect class="cls-44" x="511.9" y="148.56" width="94.24" height="24"/><rect class="cls-45" x="512.13" y="182.76" width="94.24" height="24"/><rect class="cls-46" x="511.9" y="214.98" width="94.24" height="24"/><rect class="cls-47" x="512.13" y="247.2" width="94.24" height="24"/><rect class="cls-48" x="512.35" y="281.73" width="94.24" height="24"/><rect class="cls-49" x="512.13" y="317.57" width="94.24" height="24"/><path class="cls-4" d="M542.05,401.1v27.29h26.83V401.1S556.5,368.21,542.05,401.1Z" transform="translate(-0.12 -17.77)"/><polygon class="cls-50" points="625.63 57.89 612.44 77.45 612.39 53.78 625.28 33.56 625.63 57.89"/><polygon class="cls-51" points="625.78 90.11 612.6 109.68 612.54 86 625.44 65.78 625.78 90.11"/><polygon class="cls-52" points="625.48 123.43 612.29 143 612.23 119.32 625.13 99.1 625.48 123.43"/><polygon class="cls-53" points="625.91 155 612.72 174.56 612.66 150.89 625.56 130.67 625.91 155"/><polygon class="cls-54" points="625.6 189.85 612.41 209.42 612.36 185.74 625.26 165.52 625.6 189.85"/><polygon class="cls-55" points="625.45 221.86 612.26 241.42 612.21 217.75 625.1 197.52 625.45 221.86"/><polygon class="cls-56" points="625.6 252.98 612.41 272.55 612.36 248.87 625.26 228.65 625.6 252.98"/><polygon class="cls-57" points="625.75 286.74 612.57 306.31 612.51 282.63 625.41 262.41 625.75 286.74"/><polygon class="cls-58" points="626.06 320.94 612.87 340.5 612.82 316.83 625.72 296.61 626.06 320.94"/><rect class="cls-39" x="69.39" y="81.67" width="75.36" height="240.57"/><polygon class="cls-3" points="158.62 59.31 85.21 59.45 69.57 81.04 145.31 81.04 158.62 59.31"/><polygon class="cls-40" points="158.62 59.31 158.62 304.84 144.91 322.17 144.91 81.35 158.62 59.31"/><rect class="cls-59" x="71.28" y="93.49" width="70.66" height="15.34"/><rect class="cls-60" x="71.45" y="113.86" width="70.66" height="15.34"/><rect class="cls-61" x="71.45" y="134.24" width="70.66" height="15.34"/><rect class="cls-62" x="71.63" y="153.99" width="70.66" height="15.34"/><rect class="cls-63" x="71.8" y="175.84" width="70.66" height="15.34"/><rect class="cls-64" x="71.63" y="196.43" width="70.66" height="15.34"/><rect class="cls-65" x="71.8" y="217.02" width="70.66" height="15.34"/><rect class="cls-66" x="71.97" y="239.08" width="70.66" height="15.34"/><rect class="cls-67" x="71.8" y="261.98" width="70.66" height="15.34"/><path class="cls-4" d="M94.26,321.76V339.2h20.12V321.76S105.09,300.75,94.26,321.76Z" transform="translate(-0.12 -17.77)"/><polygon class="cls-68" points="156.9 96.06 147.01 108.56 146.97 93.43 156.64 80.51 156.9 96.06"/><polygon class="cls-69" points="157.02 116.65 147.13 129.15 147.09 114.02 156.76 101.1 157.02 116.65"/><polygon class="cls-70" points="156.79 137.94 146.9 150.44 146.86 135.31 156.53 122.39 156.79 137.94"/><polygon class="cls-71" points="157.11 158.11 147.22 170.61 147.18 155.48 156.85 142.56 157.11 158.11"/><polygon class="cls-72" points="156.88 180.38 146.99 192.88 146.95 177.75 156.62 164.83 156.88 180.38"/><polygon class="cls-73" points="156.76 200.82 146.88 213.32 146.84 198.2 156.51 185.28 156.76 200.82"/><polygon class="cls-74" points="156.88 220.71 146.99 233.21 146.95 218.09 156.62 205.17 156.88 220.71"/><polygon class="cls-75" points="156.99 242.28 147.11 254.78 147.06 239.66 156.74 226.74 156.99 242.28"/><polygon class="cls-76" points="157.22 264.13 147.34 276.63 147.29 261.51 156.97 248.59 157.22 264.13"/><rect class="cls-2" x="12.97" y="217.71" width="100.51" height="174.75"/><polygon class="cls-3" points="131.97 201.47 34.06 201.57 13.2 217.25 114.23 217.25 131.97 201.47"/><polygon class="cls-4" points="131.97 201.47 131.97 379.82 113.69 392.41 113.69 217.48 131.97 201.47"/><rect class="cls-77" x="15.49" y="226.29" width="94.24" height="11.14"/><rect class="cls-78" x="15.72" y="247.24" width="94.24" height="19.8"/><rect class="cls-79" x="16.18" y="275.6" width="94.24" height="21.66"/><rect class="cls-80" x="16.18" y="305.08" width="94.24" height="22.08"/><rect class="cls-81" x="16.41" y="332.05" width="94.24" height="22.15"/><path class="cls-4" d="M46.1,397v12.67H72.93V397S60.55,381.71,46.1,397Z" transform="translate(-0.12 -17.77)"/><polygon class="cls-82" points="129.68 228.16 116.5 237.24 116.44 226.25 129.34 216.87 129.68 228.16"/><polygon class="cls-83" points="129.83 243.12 116.65 252.2 116.59 241.21 129.49 231.82 129.83 243.12"/><polygon class="cls-84" points="129.53 258.58 116.34 267.66 116.28 256.67 129.18 247.29 129.53 258.58"/><polygon class="cls-85" points="129.96 273.23 116.77 282.31 116.72 271.32 129.61 261.94 129.96 273.23"/><polygon class="cls-86" points="129.65 289.41 116.47 298.49 116.41 287.5 129.31 278.12 129.65 289.41"/><polygon class="cls-87" points="129.5 304.26 116.31 313.34 116.26 302.36 129.15 292.97 129.5 304.26"/><polygon class="cls-88" points="129.65 318.71 116.47 327.79 116.41 316.8 129.31 307.42 129.65 318.71"/><polygon class="cls-89" points="129.8 334.38 116.62 343.46 116.56 332.47 129.46 323.08 129.8 334.38"/><polygon class="cls-90" points="130.11 350.25 116.92 359.33 116.87 348.34 129.77 338.96 130.11 350.25"/><rect class="cls-91" x="333.56" y="90.39" width="100.51" height="319.57"/><polygon class="cls-3" points="452.56 60.69 354.65 60.87 333.79 89.55 434.81 89.55 452.56 60.69"/><polygon class="cls-92" points="452.56 60.69 452.56 386.84 434.27 409.86 434.27 89.97 452.56 60.69"/><rect class="cls-93" x="336.07" y="106.08" width="94.24" height="20.37"/><rect class="cls-94" x="336.3" y="133.15" width="94.24" height="20.37"/><rect class="cls-95" x="336.3" y="160.22" width="94.24" height="20.37"/><rect class="cls-96" x="336.53" y="186.46" width="94.24" height="20.37"/><rect class="cls-97" x="336.76" y="215.48" width="94.24" height="20.37"/><rect class="cls-98" x="336.53" y="242.83" width="94.24" height="20.37"/><rect class="cls-99" x="336.76" y="270.18" width="94.24" height="20.37"/><rect class="cls-100" x="336.99" y="299.48" width="94.24" height="20.37"/><rect class="cls-101" x="336.76" y="329.9" width="94.24" height="20.37"/><path class="cls-4" d="M366.69,403.49v23.16h26.82V403.49S381.13,375.58,366.69,403.49Z" transform="translate(-0.12 -17.77)"/><polygon class="cls-102" points="450.26 109.5 437.08 126.11 437.02 106.01 449.92 88.85 450.26 109.5"/><polygon class="cls-103" points="450.42 136.85 437.23 153.46 437.18 133.36 450.07 116.2 450.42 136.85"/><polygon class="cls-104" points="450.11 165.13 436.93 181.74 436.87 161.64 449.77 144.48 450.11 165.13"/><polygon class="cls-105" points="450.54 191.92 437.36 208.53 437.3 188.43 450.2 171.27 450.54 191.92"/><polygon class="cls-106" points="450.24 221.5 437.05 238.11 436.99 218.02 449.89 200.85 450.24 221.5"/><polygon class="cls-107" points="450.08 248.67 436.9 265.27 436.84 245.18 449.74 228.02 450.08 248.67"/><polygon class="cls-108" points="450.24 275.09 437.05 291.69 436.99 271.6 449.89 254.44 450.24 275.09"/><polygon class="cls-109" points="450.39 303.74 437.2 320.35 437.15 300.25 450.05 283.09 450.39 303.74"/><polygon class="cls-110" points="450.69 332.76 437.51 349.37 437.45 329.28 450.35 312.11 450.69 332.76"/><rect class="cls-19" x="169.1" y="144.28" width="100.51" height="262.56"/><polygon class="cls-3" points="288.1 119.88 190.19 120.03 169.33 143.59 270.35 143.59 288.1 119.88"/><polygon class="cls-20" points="288.1 119.88 288.1 387.85 269.81 406.77 269.81 143.94 288.1 119.88"/><rect class="cls-111" x="171.61" y="157.18" width="94.24" height="16.74"/><rect class="cls-112" x="171.84" y="179.42" width="94.24" height="16.74"/><rect class="cls-113" x="171.84" y="201.66" width="94.24" height="16.74"/><rect class="cls-114" x="172.07" y="223.21" width="94.24" height="16.74"/><rect class="cls-115" x="172.3" y="247.06" width="94.24" height="16.74"/><rect class="cls-116" x="172.07" y="269.53" width="94.24" height="16.74"/><rect class="cls-117" x="172.3" y="292" width="94.24" height="16.74"/><rect class="cls-118" x="172.53" y="316.08" width="94.24" height="16.74"/><rect class="cls-119" x="172.3" y="341.07" width="94.24" height="16.74"/><path class="cls-4" d="M202.23,404.7v19h26.82v-19S216.67,381.77,202.23,404.7Z" transform="translate(-0.12 -17.77)"/><polygon class="cls-120" points="285.81 159.99 272.62 173.63 272.56 157.12 285.46 143.02 285.81 159.99"/><polygon class="cls-121" points="285.96 182.46 272.77 196.1 272.72 179.59 285.62 165.49 285.96 182.46"/><polygon class="cls-122" points="285.65 205.69 272.47 219.34 272.41 202.83 285.31 188.72 285.65 205.69"/><polygon class="cls-123" points="286.08 227.71 272.9 241.35 272.84 224.84 285.74 210.74 286.08 227.71"/><polygon class="cls-124" points="285.78 252.01 272.59 265.65 272.54 249.15 285.43 235.04 285.78 252.01"/><polygon class="cls-125" points="285.62 274.33 272.44 287.97 272.38 271.46 285.28 257.36 285.62 274.33"/><polygon class="cls-126" points="285.78 296.04 272.59 309.68 272.54 293.17 285.43 279.07 285.78 296.04"/><polygon class="cls-127" points="285.93 319.58 272.75 333.22 272.69 316.71 285.59 302.61 285.93 319.58"/><polygon class="cls-128" points="286.24 343.43 273.05 357.07 272.99 340.56 285.89 326.46 286.24 343.43"/></svg>