<svg id="Layer_1" data-name="Layer 1" xmlns="http://www.w3.org/2000/svg" xmlns:xlink="http://www.w3.org/1999/xlink" viewBox="0 0 147.32 214.51"><defs><style>.cls-1{fill:#754c29;}.cls-1,.cls-2{stroke:#231f20;}.cls-1,.cls-10,.cls-11,.cls-12,.cls-13,.cls-14,.cls-15,.cls-17,.cls-18,.cls-19,.cls-2,.cls-4,.cls-5,.cls-6,.cls-7,.cls-8,.cls-9{stroke-miterlimit:10;}.cls-2{fill:#603913;}.cls-3{fill:#6d6e71;}.cls-4{fill:#f1f2f2;stroke:#d1d3d4;}.cls-11,.cls-4,.cls-5,.cls-6,.cls-7{stroke-width:0.75px;}.cls-17,.cls-18,.cls-19,.cls-5{fill:none;}.cls-5,.cls-6,.cls-7{stroke:#bcbec0;}.cls-6{fill:#e6e7e8;}.cls-7{fill:#a7a9ac;}.cls-10,.cls-11,.cls-12,.cls-13,.cls-14,.cls-15,.cls-8,.cls-9{stroke:#58595b;}.cls-8{fill:url(#radial-gradient);}.cls-9{fill:url(#radial-gradient-2);}.cls-10{fill:url(#radial-gradient-3);}.cls-11{fill:#be1e2d;}.cls-12{fill:#231f20;}.cls-12,.cls-13,.cls-19{stroke-width:0.25px;}.cls-13{fill:#d1d3d4;}.cls-14{fill:url(#radial-gradient-4);}.cls-15{fill:url(#radial-gradient-5);}.cls-16{fill:#808285;}.cls-17{stroke:#009444;stroke-width:0.5px;}.cls-18{stroke:#e6e7e8;}.cls-19{stroke:#939598;}</style><radialGradient id="radial-gradient" cx="66.47" cy="65.1" r="3.53" gradientUnits="userSpaceOnUse"><stop offset="0" stop-color="#fff33b"/><stop offset="0.04" stop-color="#fee72e"/><stop offset="0.12" stop-color="#fed51b"/><stop offset="0.2" stop-color="#fdca10"/><stop offset="0.28" stop-color="#fdc70c"/><stop offset="0.67" stop-color="#f3903f"/><stop offset="0.89" stop-color="#ed683c"/><stop offset="1" stop-color="#e93e3a"/></radialGradient><radialGradient id="radial-gradient-2" cx="84.38" cy="95.69" r="3.53" xlink:href="#radial-gradient"/><radialGradient id="radial-gradient-3" cx="63.22" cy="125.05" r="3.53" xlink:href="#radial-gradient"/><radialGradient id="radial-gradient-4" cx="86.56" cy="163.75" r="2.38" xlink:href="#radial-gradient"/><radialGradient id="radial-gradient-5" cx="61" cy="163.9" r="2.38" xlink:href="#radial-gradient"/></defs><path class="cls-1" d="M145.38,323H289.07l-1.83-7.95-4.59-1.84.31-3.05s-3.06-2.45-4-3.06a23.49,23.49,0,0,1-3.06-3.67s1.53-.92-.3-1.83-3.06-3.67-3.06-3.67a6.06,6.06,0,0,1-3.06-3.06l-1.22-2.45-1.83-3.67-4-4.58-3.06-3.06-2.14-3.67s-48.3,20.49-81.63,1.23l-5.5,2.75-5.81,3.67s-1.22,4.58-2.44,6.42-4.59,6.11-4.59,6.11l-2.14-1.22-2.75,5.2-1.84,2.75-2.44,1.83-2.75,4-.62,5.8-1.83,5.2.92,1.53Z" transform="translate(-142.38 -108.99)"/><ellipse class="cls-2" cx="74.65" cy="170.6" rx="41.16" ry="7.8"/><ellipse class="cls-3" cx="36.82" cy="190.09" rx="3.55" ry="1.83"/><circle class="cls-3" cx="56.42" cy="195.13" r="1.83"/><ellipse class="cls-3" cx="87.26" cy="199.03" rx="2.18" ry="1.83"/><ellipse class="cls-3" cx="102.97" cy="192.38" rx="2.29" ry="2.75"/><ellipse class="cls-3" cx="116.5" cy="184.59" rx="1.83" ry="2.29"/><ellipse class="cls-3" cx="25.58" cy="200.75" rx="1.26" ry="1.72"/><ellipse class="cls-3" cx="39.57" cy="203.39" rx="2.87" ry="2.75"/><ellipse class="cls-3" cx="51.95" cy="204.76" rx="4.47" ry="2.29"/><ellipse class="cls-3" cx="36.59" cy="183.44" rx="2.18" ry="2.06"/><path class="cls-4" d="M188.94,278.45s28.21,11.69,54.12.45l-9.4-127.26s-21.1,11-35.77,0Z" transform="translate(-142.38 -108.99)"/><path class="cls-5" d="M201.1,147a44.87,44.87,0,0,0,29.8.76l-.15-12.38s-14.67,7.64-29.2-.15Z" transform="translate(-142.38 -108.99)"/><path class="cls-6" d="M193.53,148.13s20.79,19.11,45.09,0v-3.82s-22.47,10.54-45.24-.46Z" transform="translate(-142.38 -108.99)"/><path class="cls-7" d="M199.41,134.23s12.69,12.38,33.18,0l-17.28-16.36Z" transform="translate(-142.38 -108.99)"/><rect class="cls-8" x="64.18" y="60.66" width="4.59" height="8.87"/><rect class="cls-9" x="82.08" y="91.26" width="4.59" height="8.87"/><rect class="cls-10" x="60.93" y="120.62" width="4.59" height="8.87"/><rect class="cls-11" x="69.8" y="164.33" width="7.64" height="9.94"/><rect class="cls-12" x="72.89" y="166.24" width="1.45" height="1.83"/><ellipse class="cls-13" cx="76.44" cy="169.84" rx="0.34" ry="0.35"/><ellipse class="cls-14" cx="86.56" cy="163.75" rx="2.14" ry="2.6"/><ellipse class="cls-15" cx="61" cy="163.9" rx="2.14" ry="2.6"/><path class="cls-16" d="M214.81,285.54l.09,0-1.13.24a.89.89,0,0,0-.15,0l.34.09a2.7,2.7,0,0,0,.85,0,3.66,3.66,0,0,0,1.17-.29l.33-.15-.92.24h-.08l.18,0a5.34,5.34,0,0,0,1.44.05,4.31,4.31,0,0,0,1-.25l.48-.21c.37-.18.15.1-.55.16l-.68,0c-.06,0,0,0,.09,0l.23.08a2.91,2.91,0,0,0,.83.11c.09,0,.47-.07.53,0-.23,0-.26,0-.09,0l.15.05a3.16,3.16,0,0,0,2-.17l.25-.1-.26.07h0c-.1,0-.08,0,.07,0a2.83,2.83,0,0,0,2-.55c.15-.12.37-.32.31-.54s-.36-.28-.54-.31a4.77,4.77,0,0,0-1.46,0,6.76,6.76,0,0,0-.78.17l-.5.17c-.17.07-.16.07,0,0l.75-.12h-.13l.58.08a5.84,5.84,0,0,0-.82-.22,3.71,3.71,0,0,0-.58,0s-.38,0-.21,0c-.14,0-.44-.15-.64-.18a3.42,3.42,0,0,0-1.52.2,4.23,4.23,0,0,0-.62.25c-.66.31.73-.21.72-.16s.11,0,0,0l-.17,0-.36-.05a4.34,4.34,0,0,0-1.14,0,7,7,0,0,0-.69.18,1.54,1.54,0,0,0-.3.11c-.46.21-.44.2.06,0l.75-.11c.39,0,.24,0,0,0a4.4,4.4,0,0,0-.47-.1,4,4,0,0,0-1.66.27c-.29.1-1.24.6-.81,1s1.44.11,1.9,0Z" transform="translate(-142.38 -108.99)"/><path class="cls-16" d="M223.41,285.26a6.47,6.47,0,0,0,2.44-.16,3.93,3.93,0,0,0,1.15-.4c-.7.13-.88.18-.55.15h.24l.54,0c.77,0,1.54.08,2.31.06a5.07,5.07,0,0,0,1.33-.22,12.85,12.85,0,0,0,1.2-.53,9.68,9.68,0,0,1,1.54-.2,3.68,3.68,0,0,0,1.36-.44c.16-.07.11-.05-.16,0s-.32.09-.18.07.51-.07.65-.09l.62-.14c.16,0,.91-.14.42-.13h.21c.22,0,.44-.08.66-.13a6.89,6.89,0,0,0,2.18-1c.46-.31.37-.6-.17-.64a3.72,3.72,0,0,0-2,.55c-.09.06-.35.18-.39.26s0,.06.3-.06.47-.11.16-.07a5.59,5.59,0,0,0-1.34.27c-.58.18.21,0-.17,0l-.6.09a6.51,6.51,0,0,0-1.56.46c-.51.23.44-.14.44-.14l-.68.07a9.73,9.73,0,0,0-1.31.24,10,10,0,0,0-2.36,1l1-.4c.67-.2.3-.1-.07-.12l-.81,0c-.51,0-1,0-1.54,0a8.32,8.32,0,0,0-1.57.19l-.78.24-.33.14c.42-.06.5-.09.26-.09a3.66,3.66,0,0,0-2,.37c-.2.09-1,.67-.35.75Z" transform="translate(-142.38 -108.99)"/><path class="cls-16" d="M241.11,281.61a10.1,10.1,0,0,0,1.54-.35,5.4,5.4,0,0,0,1.16-.43,2,2,0,0,0,.58-.46,1.59,1.59,0,0,1,.15-.21l-.19.18.05,0-.27.17.05,0-.33.15h0l-.38.13h0l-.75.12h-.27l-.26-.06.06,0a1.16,1.16,0,0,0,.42.07,1.84,1.84,0,0,0,.52,0,3.1,3.1,0,0,0,1.1-.36l.27-.17a.88.88,0,0,0,.3-.36v-.18a.46.46,0,0,0-.28-.25,2,2,0,0,0-1.05-.06,3.67,3.67,0,0,0-1.21.4,1.86,1.86,0,0,0-.57.47l-.14.18.2-.18-.08.06.27-.17-.06,0,.33-.16-.09,0,.38-.13c-.35.11-.7.21-1,.29l.39-.08-.4.07a3.39,3.39,0,0,0-1.1.36,1,1,0,0,0-.36.26.62.62,0,0,0-.21.27v.18a.43.43,0,0,0,.28.25,2.14,2.14,0,0,0,.94,0Z" transform="translate(-142.38 -108.99)"/><path class="cls-17" d="M238.5,279.71a4,4,0,0,1,.87,2" transform="translate(-142.38 -108.99)"/><path class="cls-17" d="M238.78,278.85a20.16,20.16,0,0,1,.92,2.95" transform="translate(-142.38 -108.99)"/><path class="cls-17" d="M239.86,278.08a.44.44,0,0,0-.17.38,6.84,6.84,0,0,0,0,1.5,6.11,6.11,0,0,1,.2,1.58" transform="translate(-142.38 -108.99)"/><path class="cls-17" d="M190.59,281.43a1,1,0,0,1,.07-.61.67.67,0,0,0,.07-.18.51.51,0,0,0,0-.21,5.73,5.73,0,0,1,0-2.37" transform="translate(-142.38 -108.99)"/><path class="cls-17" d="M191.08,281.48c.16-.3-.2-.61-.24-.94a.76.76,0,0,1,0-.3,2.59,2.59,0,0,1,.4-1.19c.13-.17.31-.39.19-.57" transform="translate(-142.38 -108.99)"/><path class="cls-17" d="M190,281.64a1.4,1.4,0,0,1-.13-.88,3.18,3.18,0,0,0,0-.87.66.66,0,0,0-.57-.57" transform="translate(-142.38 -108.99)"/><line class="cls-18" x1="72.93" y1="8.88" x2="72.93"/><path class="cls-19" d="M206,183s7.44,1.53,19.94-.15" transform="translate(-142.38 -108.99)"/><path class="cls-19" d="M206.41,220s7.45,1.53,20-.15" transform="translate(-142.38 -108.99)"/><path class="cls-19" d="M206,215.1s7.44,1.53,19.94-.15" transform="translate(-142.38 -108.99)"/><path class="cls-19" d="M206,248.1s7.44,1.53,19.94-.15" transform="translate(-142.38 -108.99)"/><path class="cls-19" d="M206,252.72s7.44,1.53,19.94-.15" transform="translate(-142.38 -108.99)"/><path class="cls-19" d="M206,188.34s7.44,1.53,19.94-.15" transform="translate(-142.38 -108.99)"/></svg>