<svg id="Layer_1" data-name="Layer 1" xmlns="http://www.w3.org/2000/svg" viewBox="0 0 59.37 94.58"><defs><style>.cls-1,.cls-2{fill:#fff;}.cls-1,.cls-2,.cls-3,.cls-5{stroke:#231f20;}.cls-1,.cls-2,.cls-3,.cls-4,.cls-5,.cls-6,.cls-7{stroke-linecap:round;stroke-linejoin:round;}.cls-1{stroke-width:0.75px;}.cls-3{fill:#754c29;}.cls-4{fill:#a7a9ac;stroke:#808285;stroke-width:2px;}.cls-5{fill:#d1d3d4;}.cls-6{fill:none;}.cls-6,.cls-7{stroke:#414042;stroke-width:0.25px;}.cls-7{fill:#6d6e71;}.cls-12,.cls-8{fill:#fff200;}.cls-9{fill:#231f20;}.cls-10,.cls-11{fill:#39b54a;}.cls-11{opacity:0.63;}.cls-12{opacity:0.42;}.cls-13{font-size:2.68px;fill:#f1f2f2;font-family:Active-Regular, Active;letter-spacing:-0.02em;}.cls-14{letter-spacing:-0.01em;}.cls-15{letter-spacing:0em;}.cls-16{letter-spacing:0.01em;}.cls-17{letter-spacing:0.02em;}.cls-18{letter-spacing:-0.01em;}.cls-19{letter-spacing:0em;}</style></defs><path class="cls-1" d="M139.36,100.77v76.69l31.5.23S186.15,133.86,139.36,100.77Z" transform="translate(-114.25 -96.46)"/><polygon class="cls-2" points="23.28 11.15 23.28 81 5.93 81 23.28 11.15"/><path class="cls-3" d="M116,184.41h55.72s-4.91,2-5.22,6.13H119.88S111.7,184.92,116,184.41Z" transform="translate(-114.25 -96.46)"/><line class="cls-4" x1="24.14" y1="83.16" x2="24.14" y2="1"/><polygon class="cls-5" points="42.54 87.84 15.24 87.84 15.24 83.24 36.34 83.29 42.54 87.84"/><line class="cls-6" x1="56.44" y1="81.35" x2="45.04" y2="87.82"/><line class="cls-7" x1="8.54" y1="81.45" x2="10.77" y2="87.51"/><circle class="cls-7" cx="21.02" cy="86.23" r="0.84"/><circle class="cls-7" cx="23.98" cy="86.23" r="0.84"/><circle class="cls-7" cx="31.27" cy="86.28" r="0.84"/><circle class="cls-7" cx="34.87" cy="86.26" r="0.84"/><circle class="cls-8" cx="24.89" cy="1.86" r="0.28"/><polygon class="cls-9" points="24.8 2.13 24.91 2.13 24.91 2.15 24.8 2.16 24.8 2.13"/><rect class="cls-9" x="32.77" y="82.51" width="3.01" height="0.5"/><ellipse class="cls-10" cx="33.08" cy="82.75" rx="0.27" ry="0.21"/><ellipse class="cls-11" cx="33.21" cy="82.81" rx="0.51" ry="0.41"/><ellipse class="cls-12" cx="25.01" cy="1.85" rx="0.37" ry="0.4"/><text class="cls-13" transform="translate(44.42 90.73)">K<tspan class="cls-14" x="1.11" y="0">e</tspan><tspan class="cls-15" x="1.98" y="0">y </tspan><tspan class="cls-16" x="3.37" y="0">o</tspan><tspan class="cls-15" x="4.35" y="0">f </tspan><tspan class="cls-17" x="5.55" y="0">S</tspan><tspan class="cls-18" x="6.71" y="0">e</tspan><tspan class="cls-19" x="7.55" y="0">a</tspan></text></svg>